<svg width="24" height="24" viewBox="0 0 24 24" fill="none" xmlns="http://www.w3.org/2000/svg">
<path d="M6.75 6.06379C6.75 4.52024 8.05213 3.2936 9.59977 3.37923L15.514 3.70642C16.6563 3.76961 17.55 4.71043 17.55 5.84969C17.55 7.24619 16.2321 8.27087 14.8716 7.93217L9.36939 6.56237C8.03887 6.23114 6.75 7.23324 6.75 8.59897V6.06379Z" fill="#222222"/>
<path d="M6.75 12.7749C6.75 11.0782 8.30878 9.80565 9.97951 10.1384L14.4101 11.0208C15.4908 11.236 16.103 12.3826 15.6779 13.3952C15.3275 14.23 14.3925 14.6573 13.5284 14.3777L9.31779 13.0149C8.0504 12.6048 6.75 13.5455 6.75 14.8726V12.7749Z" fill="#222222"/>
<path d="M6.75 18.4575C6.75 17.4676 7.55589 16.6651 8.55 16.6651C9.54411 16.6651 10.35 17.4676 10.35 18.4575C10.35 19.4475 9.54411 20.25 8.55 20.25C7.55589 20.25 6.75 19.4475 6.75 18.4575Z" fill="#222222"/>
</svg>
